<?xml version='1.0' encoding='UTF-8'?>
<svg width="111mm" height="111mm" version="1.1" viewBox="0 0 111 111" fill_color="black" back_color="white" xmlns="http://www.w3.org/2000/svg"><path d="M0,0H3V3H0zM3,0H6V3H3zM6,0H9V3H6zM9,0H12V3H9zM12,0H15V3H12zM15,0H18V3H15zM18,0H21V3H18zM27,0H30V3H27zM33,0H36V3H33zM51,0H54V3H51zM54,0H57V3H54zM60,0H63V3H60zM75,0H78V3H75zM78,0H81V3H78zM81,0H84V3H81zM84,0H87V3H84zM90,0H93V3H90zM93,0H96V3H93zM96,0H99V3H96zM99,0H102V3H99zM102,0H105V3H102zM105,0H108V3H105zM108,0H111V3H108zM0,3H3V6H0zM18,3H21V6H18zM24,3H27V6H24zM27,3H30V6H27zM42,3H45V6H42zM45,3H48V6H45zM48,3H51V6H48zM51,3H54V6H51zM54,3H57V6H54zM57,3H60V6H57zM60,3H63V6H60zM63,3H66V6H63zM66,3H69V6H66zM72,3H75V6H72zM75,3H78V6H75zM78,3H81V6H78zM90,3H93V6H90zM108,3H111V6H108zM0,6H3V9H0zM6,6H9V9H6zM9,6H12V9H9zM12,6H15V9H12zM18,6H21V9H18zM27,6H30V9H27zM30,6H33V9H30zM36,6H39V9H36zM39,6H42V9H39zM48,6H51V9H48zM51,6H54V9H51zM54,6H57V9H54zM60,6H63V9H60zM63,6H66V9H63zM69,6H72V9H69zM78,6H81V9H78zM81,6H84V9H81zM90,6H93V9H90zM96,6H99V9H96zM99,6H102V9H99zM102,6H105V9H102zM108,6H111V9H108zM0,9H3V12H0zM6,9H9V12H6zM9,9H12V12H9zM12,9H15V12H12zM18,9H21V12H18zM30,9H33V12H30zM33,9H36V12H33zM39,9H42V12H39zM42,9H45V12H42zM45,9H48V12H45zM48,9H51V12H48zM51,9H54V12H51zM66,9H69V12H66zM72,9H75V12H72zM81,9H84V12H81zM84,9H87V12H84zM90,9H93V12H90zM96,9H99V12H96zM99,9H102V12H99zM102,9H105V12H102zM108,9H111V12H108zM0,12H3V15H0zM6,12H9V15H6zM9,12H12V15H9zM12,12H15V15H12zM18,12H21V15H18zM27,12H30V15H27zM33,12H36V15H33zM42,12H45V15H42zM45,12H48V15H45zM48,12H51V15H48zM54,12H57V15H54zM60,12H63V15H60zM66,12H69V15H66zM69,12H72V15H69zM72,12H75V15H72zM75,12H78V15H75zM81,12H84V15H81zM90,12H93V15H90zM96,12H99V15H96zM99,12H102V15H99zM102,12H105V15H102zM108,12H111V15H108zM0,15H3V18H0zM18,15H21V18H18zM24,15H27V18H24zM27,15H30V18H27zM30,15H33V18H30zM42,15H45V18H42zM48,15H51V18H48zM51,15H54V18H51zM57,15H60V18H57zM60,15H63V18H60zM63,15H66V18H63zM66,15H69V18H66zM72,15H75V18H72zM75,15H78V18H75zM78,15H81V18H78zM84,15H87V18H84zM90,15H93V18H90zM108,15H111V18H108zM0,18H3V21H0zM3,18H6V21H3zM6,18H9V21H6zM9,18H12V21H9zM12,18H15V21H12zM15,18H18V21H15zM18,18H21V21H18zM24,18H27V21H24zM30,18H33V21H30zM36,18H39V21H36zM42,18H45V21H42zM48,18H51V21H48zM54,18H57V21H54zM60,18H63V21H60zM66,18H69V21H66zM72,18H75V21H72zM78,18H81V21H78zM84,18H87V21H84zM90,18H93V21H90zM93,18H96V21H93zM96,18H99V21H96zM99,18H102V21H99zM102,18H105V21H102zM105,18H108V21H105zM108,18H111V21H108zM24,21H27V24H24zM30,21H33V24H30zM36,21H39V24H36zM39,21H42V24H39zM54,21H57V24H54zM60,21H63V24H60zM63,21H66V24H63zM69,21H72V24H69zM72,21H75V24H72zM78,21H81V24H78zM12,24H15V27H12zM15,24H18V27H15zM18,24H21V27H18zM21,24H24V27H21zM36,24H39V27H36zM45,24H48V27H45zM51,24H54V27H51zM57,24H60V27H57zM60,24H63V27H60zM63,24H66V27H63zM69,24H72V27H69zM75,24H78V27H75zM78,24H81V27H78zM90,24H93V27H90zM93,24H96V27H93zM105,24H108V27H105zM0,27H3V30H0zM12,27H15V30H12zM21,27H24V30H21zM24,27H27V30H24zM27,27H30V30H27zM30,27H33V30H30zM36,27H39V30H36zM39,27H42V30H39zM42,27H45V30H42zM51,27H54V30H51zM60,27H63V30H60zM66,27H69V30H66zM69,27H72V30H69zM84,27H87V30H84zM87,27H90V30H87zM90,27H93V30H90zM93,27H96V30H93zM96,27H99V30H96zM99,27H102V30H99zM102,27H105V30H102zM108,27H111V30H108zM3,30H6V33H3zM6,30H9V33H6zM12,30H15V33H12zM18,30H21V33H18zM27,30H30V33H27zM30,30H33V33H30zM33,30H36V33H33zM36,30H39V33H36zM42,30H45V33H42zM51,30H54V33H51zM54,30H57V33H54zM57,30H60V33H57zM60,30H63V33H60zM63,30H66V33H63zM69,30H72V33H69zM72,30H75V33H72zM78,30H81V33H78zM84,30H87V33H84zM90,30H93V33H90zM93,30H96V33H93zM99,30H102V33H99zM108,30H111V33H108zM3,33H6V36H3zM9,33H12V36H9zM12,33H15V36H12zM21,33H24V36H21zM27,33H30V36H27zM36,33H39V36H36zM45,33H48V36H45zM60,33H63V36H60zM69,33H72V36H69zM78,33H81V36H78zM87,33H90V36H87zM90,33H93V36H90zM105,33H108V36H105zM108,33H111V36H108zM0,36H3V39H0zM3,36H6V39H3zM6,36H9V39H6zM9,36H12V39H9zM15,36H18V39H15zM18,36H21V39H18zM21,36H24V39H21zM24,36H27V39H24zM30,36H33V39H30zM33,36H36V39H33zM36,36H39V39H36zM39,36H42V39H39zM42,36H45V39H42zM51,36H54V39H51zM54,36H57V39H54zM60,36H63V39H60zM66,36H69V39H66zM81,36H84V39H81zM87,36H90V39H87zM90,36H93V39H90zM96,36H99V39H96zM105,36H108V39H105zM12,39H15V42H12zM15,39H18V42H15zM24,39H27V42H24zM27,39H30V42H27zM33,39H36V42H33zM36,39H39V42H36zM39,39H42V42H39zM51,39H54V42H51zM63,39H66V42H63zM66,39H69V42H66zM69,39H72V42H69zM75,39H78V42H75zM84,39H87V42H84zM93,39H96V42H93zM96,39H99V42H96zM99,39H102V42H99zM105,39H108V42H105zM0,42H3V45H0zM3,42H6V45H3zM6,42H9V45H6zM12,42H15V45H12zM18,42H21V45H18zM21,42H24V45H21zM27,42H30V45H27zM30,42H33V45H30zM33,42H36V45H33zM36,42H39V45H36zM42,42H45V45H42zM51,42H54V45H51zM54,42H57V45H54zM57,42H60V45H57zM66,42H69V45H66zM69,42H72V45H69zM72,42H75V45H72zM78,42H81V45H78zM84,42H87V45H84zM87,42H90V45H87zM93,42H96V45H93zM0,45H3V48H0zM9,45H12V48H9zM12,45H15V48H12zM24,45H27V48H24zM27,45H30V48H27zM42,45H45V48H42zM45,45H48V48H45zM60,45H63V48H60zM69,45H72V48H69zM78,45H81V48H78zM87,45H90V48H87zM90,45H93V48H90zM102,45H105V48H102zM108,45H111V48H108zM0,48H3V51H0zM3,48H6V51H3zM6,48H9V51H6zM9,48H12V51H9zM15,48H18V51H15zM18,48H21V51H18zM21,48H24V51H21zM30,48H33V51H30zM39,48H42V51H39zM42,48H45V51H42zM51,48H54V51H51zM54,48H57V51H54zM57,48H60V51H57zM63,48H66V51H63zM75,48H78V51H75zM78,48H81V51H78zM81,48H84V51H81zM87,48H90V51H87zM90,48H93V51H90zM99,48H102V51H99zM102,48H105V51H102zM105,48H108V51H105zM3,51H6V54H3zM9,51H12V54H9zM12,51H15V54H12zM15,51H18V54H15zM27,51H30V54H27zM45,51H48V54H45zM48,51H51V54H48zM57,51H60V54H57zM66,51H69V54H66zM69,51H72V54H69zM78,51H81V54H78zM81,51H84V54H81zM84,51H87V54H84zM96,51H99V54H96zM105,51H108V54H105zM3,54H6V57H3zM6,54H9V57H6zM9,54H12V57H9zM18,54H21V57H18zM21,54H24V57H21zM27,54H30V57H27zM33,54H36V57H33zM36,54H39V57H36zM39,54H42V57H39zM45,54H48V57H45zM57,54H60V57H57zM60,54H63V57H60zM63,54H66V57H63zM72,54H75V57H72zM75,54H78V57H75zM78,54H81V57H78zM81,54H84V57H81zM84,54H87V57H84zM90,54H93V57H90zM93,54H96V57H93zM96,54H99V57H96zM3,57H6V60H3zM9,57H12V60H9zM21,57H24V60H21zM27,57H30V60H27zM30,57H33V60H30zM42,57H45V60H42zM45,57H48V60H45zM48,57H51V60H48zM51,57H54V60H51zM54,57H57V60H54zM57,57H60V60H57zM60,57H63V60H60zM63,57H66V60H63zM66,57H69V60H66zM69,57H72V60H69zM72,57H75V60H72zM75,57H78V60H75zM87,57H90V60H87zM90,57H93V60H90zM93,57H96V60H93zM96,57H99V60H96zM102,57H105V60H102zM108,57H111V60H108zM6,60H9V63H6zM9,60H12V63H9zM18,60H21V63H18zM33,60H36V63H33zM42,60H45V63H42zM57,60H60V63H57zM66,60H69V63H66zM69,60H72V63H69zM75,60H78V63H75zM81,60H84V63H81zM84,60H87V63H84zM87,60H90V63H87zM93,60H96V63H93zM102,60H105V63H102zM108,60H111V63H108zM6,63H9V66H6zM9,63H12V66H9zM42,63H45V66H42zM54,63H57V66H54zM57,63H60V66H57zM72,63H75V66H72zM78,63H81V66H78zM81,63H84V66H81zM84,63H87V66H84zM90,63H93V66H90zM93,63H96V66H93zM96,63H99V66H96zM105,63H108V66H105zM108,63H111V66H108zM3,66H6V69H3zM6,66H9V69H6zM9,66H12V69H9zM18,66H21V69H18zM21,66H24V69H21zM27,66H30V69H27zM30,66H33V69H30zM33,66H36V69H33zM36,66H39V69H36zM39,66H42V69H39zM48,66H51V69H48zM51,66H54V69H51zM57,66H60V69H57zM60,66H63V69H60zM63,66H66V69H63zM75,66H78V69H75zM78,66H81V69H78zM81,66H84V69H81zM84,66H87V69H84zM90,66H93V69H90zM93,66H96V69H93zM96,66H99V69H96zM102,66H105V69H102zM105,66H108V69H105zM3,69H6V72H3zM6,69H9V72H6zM9,69H12V72H9zM12,69H15V72H12zM15,69H18V72H15zM21,69H24V72H21zM27,69H30V72H27zM42,69H45V72H42zM45,69H48V72H45zM48,69H51V72H48zM51,69H54V72H51zM57,69H60V72H57zM60,69H63V72H60zM63,69H66V72H63zM66,69H69V72H66zM72,69H75V72H72zM75,69H78V72H75zM87,69H90V72H87zM90,69H93V72H90zM93,69H96V72H93zM99,69H102V72H99zM102,69H105V72H102zM9,72H12V75H9zM15,72H18V75H15zM18,72H21V75H18zM24,72H27V75H24zM27,72H30V75H27zM33,72H36V75H33zM36,72H39V75H36zM42,72H45V75H42zM45,72H48V75H45zM48,72H51V75H48zM51,72H54V75H51zM54,72H57V75H54zM57,72H60V75H57zM60,72H63V75H60zM66,72H69V75H66zM69,72H72V75H69zM72,72H75V75H72zM75,72H78V75H75zM84,72H87V75H84zM87,72H90V75H87zM93,72H96V75H93zM96,72H99V75H96zM99,72H102V75H99zM108,72H111V75H108zM0,75H3V78H0zM12,75H15V78H12zM15,75H18V78H15zM21,75H24V78H21zM24,75H27V78H24zM30,75H33V78H30zM42,75H45V78H42zM48,75H51V78H48zM51,75H54V78H51zM54,75H57V78H54zM57,75H60V78H57zM60,75H63V78H60zM75,75H78V78H75zM78,75H81V78H78zM90,75H93V78H90zM105,75H108V78H105zM108,75H111V78H108zM18,78H21V81H18zM21,78H24V81H21zM30,78H33V81H30zM39,78H42V81H39zM42,78H45V81H42zM45,78H48V81H45zM54,78H57V81H54zM57,78H60V81H57zM63,78H66V81H63zM81,78H84V81H81zM96,78H99V81H96zM102,78H105V81H102zM105,78H108V81H105zM6,81H9V84H6zM12,81H15V84H12zM21,81H24V84H21zM30,81H33V84H30zM33,81H36V84H33zM39,81H42V84H39zM45,81H48V84H45zM72,81H75V84H72zM81,81H84V84H81zM84,81H87V84H84zM87,81H90V84H87zM90,81H93V84H90zM93,81H96V84H93zM96,81H99V84H96zM99,81H102V84H99zM102,81H105V84H102zM0,84H3V87H0zM3,84H6V87H3zM9,84H12V87H9zM12,84H15V87H12zM18,84H21V87H18zM21,84H24V87H21zM30,84H33V87H30zM48,84H51V87H48zM51,84H54V87H51zM54,84H57V87H54zM60,84H63V87H60zM69,84H72V87H69zM72,84H75V87H72zM84,84H87V87H84zM87,84H90V87H87zM90,84H93V87H90zM93,84H96V87H93zM96,84H99V87H96zM99,84H102V87H99zM108,84H111V87H108zM24,87H27V90H24zM33,87H36V90H33zM36,87H39V90H36zM42,87H45V90H42zM48,87H51V90H48zM51,87H54V90H51zM60,87H63V90H60zM63,87H66V90H63zM81,87H84V90H81zM84,87H87V90H84zM96,87H99V90H96zM99,87H102V90H99zM0,90H3V93H0zM3,90H6V93H3zM6,90H9V93H6zM9,90H12V93H9zM12,90H15V93H12zM15,90H18V93H15zM18,90H21V93H18zM24,90H27V93H24zM30,90H33V93H30zM39,90H42V93H39zM45,90H48V93H45zM54,90H57V93H54zM63,90H66V93H63zM75,90H78V93H75zM78,90H81V93H78zM81,90H84V93H81zM84,90H87V93H84zM90,90H93V93H90zM96,90H99V93H96zM0,93H3V96H0zM18,93H21V96H18zM24,93H27V96H24zM30,93H33V96H30zM33,93H36V96H33zM39,93H42V96H39zM42,93H45V96H42zM45,93H48V96H45zM57,93H60V96H57zM72,93H75V96H72zM75,93H78V96H75zM81,93H84V96H81zM84,93H87V96H84zM96,93H99V96H96zM102,93H105V96H102zM105,93H108V96H105zM108,93H111V96H108zM0,96H3V99H0zM6,96H9V99H6zM9,96H12V99H9zM12,96H15V99H12zM18,96H21V99H18zM24,96H27V99H24zM30,96H33V99H30zM33,96H36V99H33zM39,96H42V99H39zM42,96H45V99H42zM51,96H54V99H51zM54,96H57V99H54zM57,96H60V99H57zM69,96H72V99H69zM75,96H78V99H75zM84,96H87V99H84zM87,96H90V99H87zM90,96H93V99H90zM93,96H96V99H93zM96,96H99V99H96zM99,96H102V99H99zM102,96H105V99H102zM108,96H111V99H108zM0,99H3V102H0zM6,99H9V102H6zM9,99H12V102H9zM12,99H15V102H12zM18,99H21V102H18zM27,99H30V102H27zM42,99H45V102H42zM45,99H48V102H45zM57,99H60V102H57zM63,99H66V102H63zM66,99H69V102H66zM72,99H75V102H72zM75,99H78V102H75zM78,99H81V102H78zM81,99H84V102H81zM87,99H90V102H87zM90,99H93V102H90zM93,99H96V102H93zM96,99H99V102H96zM99,99H102V102H99zM105,99H108V102H105zM108,99H111V102H108zM0,102H3V105H0zM6,102H9V105H6zM9,102H12V105H9zM12,102H15V105H12zM18,102H21V105H18zM27,102H30V105H27zM33,102H36V105H33zM39,102H42V105H39zM42,102H45V105H42zM45,102H48V105H45zM51,102H54V105H51zM60,102H63V105H60zM69,102H72V105H69zM72,102H75V105H72zM81,102H84V105H81zM84,102H87V105H84zM87,102H90V105H87zM90,102H93V105H90zM93,102H96V105H93zM96,102H99V105H96zM99,102H102V105H99zM102,102H105V105H102zM105,102H108V105H105zM0,105H3V108H0zM18,105H21V108H18zM27,105H30V108H27zM36,105H39V108H36zM45,105H48V108H45zM51,105H54V108H51zM54,105H57V108H54zM57,105H60V108H57zM60,105H63V108H60zM63,105H66V108H63zM69,105H72V108H69zM78,105H81V108H78zM81,105H84V108H81zM96,105H99V108H96zM102,105H105V108H102zM105,105H108V108H105zM0,108H3V111H0zM3,108H6V111H3zM6,108H9V111H6zM9,108H12V111H9zM12,108H15V111H12zM15,108H18V111H15zM18,108H21V111H18zM30,108H33V111H30zM33,108H36V111H33zM39,108H42V111H39zM48,108H51V111H48zM51,108H54V111H51zM66,108H69V111H66zM75,108H78V111H75zM78,108H81V111H78zM102,108H105V111H102zM105,108H108V111H105zM108,108H111V111H108z" id="qr-path" fill="#000000" fill-opacity="1" fill-rule="nonzero" stroke="none" /></svg>