<?xml version='1.0' encoding='UTF-8'?>
<svg width="111mm" height="111mm" version="1.1" viewBox="0 0 111 111" fill_color="black" back_color="white" xmlns="http://www.w3.org/2000/svg"><path d="M0,0H3V3H0zM3,0H6V3H3zM6,0H9V3H6zM9,0H12V3H9zM12,0H15V3H12zM15,0H18V3H15zM18,0H21V3H18zM39,0H42V3H39zM48,0H51V3H48zM51,0H54V3H51zM54,0H57V3H54zM60,0H63V3H60zM63,0H66V3H63zM72,0H75V3H72zM90,0H93V3H90zM93,0H96V3H93zM96,0H99V3H96zM99,0H102V3H99zM102,0H105V3H102zM105,0H108V3H105zM108,0H111V3H108zM0,3H3V6H0zM18,3H21V6H18zM27,3H30V6H27zM33,3H36V6H33zM39,3H42V6H39zM48,3H51V6H48zM54,3H57V6H54zM60,3H63V6H60zM66,3H69V6H66zM69,3H72V6H69zM75,3H78V6H75zM90,3H93V6H90zM108,3H111V6H108zM0,6H3V9H0zM6,6H9V9H6zM9,6H12V9H9zM12,6H15V9H12zM18,6H21V9H18zM27,6H30V9H27zM39,6H42V9H39zM42,6H45V9H42zM45,6H48V9H45zM48,6H51V9H48zM60,6H63V9H60zM72,6H75V9H72zM75,6H78V9H75zM81,6H84V9H81zM84,6H87V9H84zM90,6H93V9H90zM96,6H99V9H96zM99,6H102V9H99zM102,6H105V9H102zM108,6H111V9H108zM0,9H3V12H0zM6,9H9V12H6zM9,9H12V12H9zM12,9H15V12H12zM18,9H21V12H18zM30,9H33V12H30zM33,9H36V12H33zM36,9H39V12H36zM39,9H42V12H39zM42,9H45V12H42zM48,9H51V12H48zM51,9H54V12H51zM60,9H63V12H60zM63,9H66V12H63zM66,9H69V12H66zM69,9H72V12H69zM72,9H75V12H72zM75,9H78V12H75zM78,9H81V12H78zM81,9H84V12H81zM90,9H93V12H90zM96,9H99V12H96zM99,9H102V12H99zM102,9H105V12H102zM108,9H111V12H108zM0,12H3V15H0zM6,12H9V15H6zM9,12H12V15H9zM12,12H15V15H12zM18,12H21V15H18zM24,12H27V15H24zM27,12H30V15H27zM36,12H39V15H36zM45,12H48V15H45zM48,12H51V15H48zM51,12H54V15H51zM54,12H57V15H54zM60,12H63V15H60zM63,12H66V15H63zM66,12H69V15H66zM72,12H75V15H72zM75,12H78V15H75zM78,12H81V15H78zM81,12H84V15H81zM90,12H93V15H90zM96,12H99V15H96zM99,12H102V15H99zM102,12H105V15H102zM108,12H111V15H108zM0,15H3V18H0zM18,15H21V18H18zM27,15H30V18H27zM30,15H33V18H30zM36,15H39V18H36zM51,15H54V18H51zM63,15H66V18H63zM72,15H75V18H72zM78,15H81V18H78zM90,15H93V18H90zM108,15H111V18H108zM0,18H3V21H0zM3,18H6V21H3zM6,18H9V21H6zM9,18H12V21H9zM12,18H15V21H12zM15,18H18V21H15zM18,18H21V21H18zM24,18H27V21H24zM30,18H33V21H30zM36,18H39V21H36zM42,18H45V21H42zM48,18H51V21H48zM54,18H57V21H54zM60,18H63V21H60zM66,18H69V21H66zM72,18H75V21H72zM78,18H81V21H78zM84,18H87V21H84zM90,18H93V21H90zM93,18H96V21H93zM96,18H99V21H96zM99,18H102V21H99zM102,18H105V21H102zM105,18H108V21H105zM108,18H111V21H108zM24,21H27V24H24zM27,21H30V24H27zM30,21H33V24H30zM33,21H36V24H33zM39,21H42V24H39zM42,21H45V24H42zM45,21H48V24H45zM51,21H54V24H51zM57,21H60V24H57zM60,21H63V24H60zM63,21H66V24H63zM69,21H72V24H69zM75,21H78V24H75zM78,21H81V24H78zM81,21H84V24H81zM84,21H87V24H84zM6,24H9V27H6zM9,24H12V27H9zM18,24H21V27H18zM21,24H24V27H21zM24,24H27V27H24zM30,24H33V27H30zM45,24H48V27H45zM48,24H51V27H48zM54,24H57V27H54zM57,24H60V27H57zM60,24H63V27H60zM66,24H69V27H66zM72,24H75V27H72zM75,24H78V27H75zM78,24H81V27H78zM81,24H84V27H81zM84,24H87V27H84zM87,24H90V27H87zM90,24H93V27H90zM96,24H99V27H96zM6,27H9V30H6zM9,27H12V30H9zM15,27H18V30H15zM21,27H24V30H21zM24,27H27V30H24zM36,27H39V30H36zM39,27H42V30H39zM42,27H45V30H42zM45,27H48V30H45zM48,27H51V30H48zM66,27H69V30H66zM69,27H72V30H69zM75,27H78V30H75zM81,27H84V30H81zM87,27H90V30H87zM99,27H102V30H99zM108,27H111V30H108zM0,30H3V33H0zM3,30H6V33H3zM6,30H9V33H6zM15,30H18V33H15zM18,30H21V33H18zM21,30H24V33H21zM24,30H27V33H24zM27,30H30V33H27zM30,30H33V33H30zM36,30H39V33H36zM39,30H42V33H39zM42,30H45V33H42zM45,30H48V33H45zM48,30H51V33H48zM63,30H66V33H63zM66,30H69V33H66zM69,30H72V33H69zM72,30H75V33H72zM75,30H78V33H75zM84,30H87V33H84zM87,30H90V33H87zM96,30H99V33H96zM99,30H102V33H99zM102,30H105V33H102zM0,33H3V36H0zM21,33H24V36H21zM30,33H33V36H30zM33,33H36V36H33zM36,33H39V36H36zM39,33H42V36H39zM42,33H45V36H42zM51,33H54V36H51zM63,33H66V36H63zM69,33H72V36H69zM75,33H78V36H75zM78,33H81V36H78zM81,33H84V36H81zM93,33H96V36H93zM99,33H102V36H99zM102,33H105V36H102zM105,33H108V36H105zM108,33H111V36H108zM15,36H18V39H15zM18,36H21V39H18zM21,36H24V39H21zM24,36H27V39H24zM45,36H48V39H45zM48,36H51V39H48zM54,36H57V39H54zM60,36H63V39H60zM66,36H69V39H66zM75,36H78V39H75zM87,36H90V39H87zM90,36H93V39H90zM93,36H96V39H93zM96,36H99V39H96zM102,36H105V39H102zM105,36H108V39H105zM0,39H3V42H0zM6,39H9V42H6zM9,39H12V42H9zM12,39H15V42H12zM24,39H27V42H24zM27,39H30V42H27zM33,39H36V42H33zM36,39H39V42H36zM39,39H42V42H39zM42,39H45V42H42zM45,39H48V42H45zM48,39H51V42H48zM54,39H57V42H54zM57,39H60V42H57zM63,39H66V42H63zM66,39H69V42H66zM69,39H72V42H69zM72,39H75V42H72zM75,39H78V42H75zM81,39H84V42H81zM84,39H87V42H84zM90,39H93V42H90zM93,39H96V42H93zM96,39H99V42H96zM102,39H105V42H102zM108,39H111V42H108zM3,42H6V45H3zM12,42H15V45H12zM15,42H18V45H15zM18,42H21V45H18zM21,42H24V45H21zM42,42H45V45H42zM51,42H54V45H51zM57,42H60V45H57zM69,42H72V45H69zM72,42H75V45H72zM78,42H81V45H78zM84,42H87V45H84zM90,42H93V45H90zM93,42H96V45H93zM96,42H99V45H96zM102,42H105V45H102zM105,42H108V45H105zM12,45H15V48H12zM21,45H24V48H21zM33,45H36V48H33zM36,45H39V48H36zM42,45H45V48H42zM45,45H48V48H45zM48,45H51V48H48zM57,45H60V48H57zM60,45H63V48H60zM63,45H66V48H63zM84,45H87V48H84zM87,45H90V48H87zM108,45H111V48H108zM0,48H3V51H0zM9,48H12V51H9zM18,48H21V51H18zM24,48H27V51H24zM27,48H30V51H27zM30,48H33V51H30zM33,48H36V51H33zM39,48H42V51H39zM45,48H48V51H45zM54,48H57V51H54zM60,48H63V51H60zM66,48H69V51H66zM69,48H72V51H69zM75,48H78V51H75zM87,48H90V51H87zM99,48H102V51H99zM102,48H105V51H102zM3,51H6V54H3zM9,51H12V54H9zM21,51H24V54H21zM24,51H27V54H24zM27,51H30V54H27zM39,51H42V54H39zM42,51H45V54H42zM45,51H48V54H45zM54,51H57V54H54zM57,51H60V54H57zM63,51H66V54H63zM72,51H75V54H72zM75,51H78V54H75zM81,51H84V54H81zM90,51H93V54H90zM102,51H105V54H102zM108,51H111V54H108zM6,54H9V57H6zM15,54H18V57H15zM18,54H21V57H18zM24,54H27V57H24zM27,54H30V57H27zM30,54H33V57H30zM39,54H42V57H39zM42,54H45V57H42zM54,54H57V57H54zM57,54H60V57H57zM66,54H69V57H66zM69,54H72V57H69zM72,54H75V57H72zM78,54H81V57H78zM81,54H84V57H81zM84,54H87V57H84zM87,54H90V57H87zM90,54H93V57H90zM93,54H96V57H93zM96,54H99V57H96zM99,54H102V57H99zM102,54H105V57H102zM105,54H108V57H105zM108,54H111V57H108zM0,57H3V60H0zM3,57H6V60H3zM6,57H9V60H6zM9,57H12V60H9zM12,57H15V60H12zM21,57H24V60H21zM27,57H30V60H27zM36,57H39V60H36zM45,57H48V60H45zM51,57H54V60H51zM57,57H60V60H57zM60,57H63V60H60zM63,57H66V60H63zM66,57H69V60H66zM72,57H75V60H72zM84,57H87V60H84zM87,57H90V60H87zM96,57H99V60H96zM99,57H102V60H99zM105,57H108V60H105zM3,60H6V63H3zM15,60H18V63H15zM18,60H21V63H18zM21,60H24V63H21zM27,60H30V63H27zM48,60H51V63H48zM54,60H57V63H54zM60,60H63V63H60zM63,60H66V63H63zM66,60H69V63H66zM72,60H75V63H72zM78,60H81V63H78zM81,60H84V63H81zM84,60H87V63H84zM87,60H90V63H87zM96,60H99V63H96zM99,60H102V63H99zM108,60H111V63H108zM0,63H3V66H0zM9,63H12V66H9zM21,63H24V66H21zM33,63H36V66H33zM42,63H45V66H42zM48,63H51V66H48zM51,63H54V66H51zM54,63H57V66H54zM57,63H60V66H57zM66,63H69V66H66zM69,63H72V66H69zM72,63H75V66H72zM93,63H96V66H93zM99,63H102V66H99zM102,63H105V66H102zM105,63H108V66H105zM0,66H3V69H0zM6,66H9V69H6zM18,66H21V69H18zM21,66H24V69H21zM33,66H36V69H33zM36,66H39V69H36zM45,66H48V69H45zM48,66H51V69H48zM54,66H57V69H54zM57,66H60V69H57zM63,66H66V69H63zM72,66H75V69H72zM78,66H81V69H78zM87,66H90V69H87zM96,66H99V69H96zM99,66H102V69H99zM102,66H105V69H102zM9,69H12V72H9zM12,69H15V72H12zM21,69H24V72H21zM27,69H30V72H27zM36,69H39V72H36zM39,69H42V72H39zM42,69H45V72H42zM45,69H48V72H45zM51,69H54V72H51zM60,69H63V72H60zM63,69H66V72H63zM66,69H69V72H66zM75,69H78V72H75zM78,69H81V72H78zM81,69H84V72H81zM84,69H87V72H84zM90,69H93V72H90zM99,69H102V72H99zM102,69H105V72H102zM105,69H108V72H105zM0,72H3V75H0zM12,72H15V75H12zM18,72H21V75H18zM30,72H33V75H30zM33,72H36V75H33zM45,72H48V75H45zM48,72H51V75H48zM51,72H54V75H51zM90,72H93V75H90zM93,72H96V75H93zM96,72H99V75H96zM99,72H102V75H99zM102,72H105V75H102zM105,72H108V75H105zM108,72H111V75H108zM6,75H9V78H6zM9,75H12V78H9zM15,75H18V78H15zM21,75H24V78H21zM27,75H30V78H27zM30,75H33V78H30zM33,75H36V78H33zM36,75H39V78H36zM45,75H48V78H45zM48,75H51V78H48zM54,75H57V78H54zM69,75H72V78H69zM81,75H84V78H81zM90,75H93V78H90zM96,75H99V78H96zM99,75H102V78H99zM105,75H108V78H105zM108,75H111V78H108zM3,78H6V81H3zM6,78H9V81H6zM9,78H12V81H9zM12,78H15V81H12zM18,78H21V81H18zM24,78H27V81H24zM27,78H30V81H27zM30,78H33V81H30zM39,78H42V81H39zM42,78H45V81H42zM48,78H51V81H48zM51,78H54V81H51zM54,78H57V81H54zM60,78H63V81H60zM63,78H66V81H63zM72,78H75V81H72zM84,78H87V81H84zM93,78H96V81H93zM96,78H99V81H96zM102,78H105V81H102zM0,81H3V84H0zM6,81H9V84H6zM12,81H15V84H12zM21,81H24V84H21zM24,81H27V84H24zM27,81H30V84H27zM36,81H39V84H36zM42,81H45V84H42zM45,81H48V84H45zM51,81H54V84H51zM60,81H63V84H60zM66,81H69V84H66zM72,81H75V84H72zM78,81H81V84H78zM81,81H84V84H81zM84,81H87V84H84zM87,81H90V84H87zM99,81H102V84H99zM105,81H108V84H105zM108,81H111V84H108zM9,84H12V87H9zM18,84H21V87H18zM21,84H24V87H21zM30,84H33V87H30zM42,84H45V87H42zM45,84H48V87H45zM48,84H51V87H48zM54,84H57V87H54zM60,84H63V87H60zM66,84H69V87H66zM69,84H72V87H69zM75,84H78V87H75zM84,84H87V87H84zM87,84H90V87H87zM90,84H93V87H90zM93,84H96V87H93zM96,84H99V87H96zM99,84H102V87H99zM102,84H105V87H102zM24,87H27V90H24zM48,87H51V90H48zM57,87H60V90H57zM66,87H69V90H66zM69,87H72V90H69zM72,87H75V90H72zM75,87H78V90H75zM84,87H87V90H84zM96,87H99V90H96zM99,87H102V90H99zM102,87H105V90H102zM108,87H111V90H108zM0,90H3V93H0zM3,90H6V93H3zM6,90H9V93H6zM9,90H12V93H9zM12,90H15V93H12zM15,90H18V93H15zM18,90H21V93H18zM24,90H27V93H24zM27,90H30V93H27zM36,90H39V93H36zM51,90H54V93H51zM54,90H57V93H54zM66,90H69V93H66zM72,90H75V93H72zM78,90H81V93H78zM84,90H87V93H84zM90,90H93V93H90zM96,90H99V93H96zM99,90H102V93H99zM105,90H108V93H105zM108,90H111V93H108zM0,93H3V96H0zM18,93H21V96H18zM30,93H33V96H30zM39,93H42V96H39zM45,93H48V96H45zM48,93H51V96H48zM51,93H54V96H51zM57,93H60V96H57zM66,93H69V96H66zM72,93H75V96H72zM78,93H81V96H78zM81,93H84V96H81zM84,93H87V96H84zM96,93H99V96H96zM99,93H102V96H99zM105,93H108V96H105zM0,96H3V99H0zM6,96H9V99H6zM9,96H12V99H9zM12,96H15V99H12zM18,96H21V99H18zM27,96H30V99H27zM36,96H39V99H36zM39,96H42V99H39zM48,96H51V99H48zM51,96H54V99H51zM57,96H60V99H57zM78,96H81V99H78zM84,96H87V99H84zM87,96H90V99H87zM90,96H93V99H90zM93,96H96V99H93zM96,96H99V99H96zM99,96H102V99H99zM105,96H108V99H105zM0,99H3V102H0zM6,99H9V102H6zM9,99H12V102H9zM12,99H15V102H12zM18,99H21V102H18zM24,99H27V102H24zM27,99H30V102H27zM30,99H33V102H30zM33,99H36V102H33zM36,99H39V102H36zM42,99H45V102H42zM45,99H48V102H45zM48,99H51V102H48zM51,99H54V102H51zM54,99H57V102H54zM57,99H60V102H57zM60,99H63V102H60zM63,99H66V102H63zM75,99H78V102H75zM84,99H87V102H84zM90,99H93V102H90zM93,99H96V102H93zM96,99H99V102H96zM0,102H3V105H0zM6,102H9V105H6zM9,102H12V105H9zM12,102H15V105H12zM18,102H21V105H18zM24,102H27V105H24zM27,102H30V105H27zM30,102H33V105H30zM33,102H36V105H33zM36,102H39V105H36zM39,102H42V105H39zM42,102H45V105H42zM54,102H57V105H54zM63,102H66V105H63zM66,102H69V105H66zM81,102H84V105H81zM84,102H87V105H84zM90,102H93V105H90zM93,102H96V105H93zM96,102H99V105H96zM99,102H102V105H99zM105,102H108V105H105zM0,105H3V108H0zM18,105H21V108H18zM27,105H30V108H27zM30,105H33V108H30zM33,105H36V108H33zM48,105H51V108H48zM51,105H54V108H51zM54,105H57V108H54zM60,105H63V108H60zM66,105H69V108H66zM69,105H72V108H69zM72,105H75V108H72zM75,105H78V108H75zM87,105H90V108H87zM90,105H93V108H90zM99,105H102V108H99zM102,105H105V108H102zM0,108H3V111H0zM3,108H6V111H3zM6,108H9V111H6zM9,108H12V111H9zM12,108H15V111H12zM15,108H18V111H15zM18,108H21V111H18zM36,108H39V111H36zM39,108H42V111H39zM42,108H45V111H42zM45,108H48V111H45zM51,108H54V111H51zM54,108H57V111H54zM63,108H66V111H63zM66,108H69V111H66zM69,108H72V111H69zM72,108H75V111H72zM75,108H78V111H75zM78,108H81V111H78zM87,108H90V111H87zM90,108H93V111H90zM99,108H102V111H99zM102,108H105V111H102zM105,108H108V111H105zM108,108H111V111H108z" id="qr-path" fill="#000000" fill-opacity="1" fill-rule="nonzero" stroke="none" /></svg>